<svg width="2089" height="344" viewBox="0 0 2089 344" fill="none" xmlns="http://www.w3.org/2000/svg">
<g clip-path="url(#clip0_1_50)">
<path d="M107.789 7H266.21C318 7 360 46.9364 360 96.1813V246.819C360 296.064 318 336 266.21 336H107.789C56 336 14 296.064 14 246.819V96.1813C14 46.9364 56 7 107.789 7Z" fill="#F4F4F4" stroke="#F4F4F4" stroke-width="2" stroke-miterlimit="10"/>
<path d="M182.15 285C174.9 285 167.761 284.8 160.841 284.398C153.921 283.997 147.11 283.396 140.41 282.594C133.71 281.792 127.229 280.889 121.078 279.887C114.927 278.884 108.996 277.681 103.284 276.277V229.955C110.753 230.556 118.771 231.057 127.449 231.458C136.126 231.86 144.914 232.16 153.811 232.361C162.708 232.561 170.946 232.662 178.635 232.662C184.676 232.762 190.827 232.261 196.759 231.158C201.592 230.155 205.217 228.551 207.633 226.345C210.05 224.139 211.258 221.131 211.258 217.321V213.712C211.258 209.3 209.61 205.991 206.205 203.785C202.69 201.58 198.406 200.376 194.123 200.477H176.768C151.284 200.477 131.952 195.363 118.771 185.136C105.59 174.909 99 157.764 99 133.7V123.774C99 101.716 106.25 85.1718 120.749 74.3432C135.248 63.5146 156.117 58 183.358 58C193.134 58 202.8 58.4011 212.576 59.3034C221.693 60.2058 230.26 61.3087 238.279 62.6122C246.297 63.9156 253.547 65.2191 259.917 66.6228V112.945C249.812 112.143 238.389 111.441 225.757 110.94C213.125 110.439 201.702 110.138 191.267 110.138C185.775 110.138 180.283 110.539 174.79 111.341C169.957 112.143 166.223 113.747 163.587 116.154C160.95 118.56 159.632 122.069 159.632 126.682V129.689C159.632 134.703 161.39 138.513 164.905 141.12C168.42 143.727 173.802 145.03 181.051 145.03H202.8C218.178 145.03 230.919 147.637 241.135 152.951C251.02 157.964 259.039 165.484 264.201 174.608C269.364 183.732 271.89 194.06 272 205.69V215.617C272 234.667 268.375 249.205 261.126 259.232C253.876 269.258 243.551 276.076 230.15 279.485C216.86 283.195 200.823 285 182.15 285Z" fill="#4E5CA6"/>
<path d="M151.877 232.832C146.852 238.031 143.611 243.929 142.314 249.927C140.369 260.024 143.773 270.221 151.877 279.019V232.832Z" fill="#4E5CA6"/>
<path d="M586.3 224.7C586.3 234.1 584.1 242.2 579.7 249C575.5 255.6 568.5 261.7 558.7 267.3C552.1 271.3 544.4 274.3 535.6 276.3C526.8 278.3 517.9 279.3 508.9 279.3C499.7 279.3 488.3 276.3 474.7 270.3C464.9 265.5 457.1 259.8 451.3 253.2C445.7 246.6 442.9 239.4 442.9 231.6C442.9 226.2 444.1 222.3 446.5 219.9C448.9 217.3 452.8 216 458.2 216C461 216 463.9 217.2 466.9 219.6C469.9 221.8 471.7 224 472.3 226.2C475.1 234.4 480 240.7 487 245.1C494 249.3 502.7 251.4 513.1 251.4C525.1 251.4 535.1 249.2 543.1 244.8C551.3 240.4 555.4 234.5 555.4 227.1C555.4 219.9 551 213.5 542.2 207.9C533.4 202.3 524.4 198.4 515.2 196.2C502 192.6 490.3 188.3 480.1 183.3C469.5 178.1 461.6 171.7 456.4 164.1C451.2 156.5 448.6 148.5 448.6 140.1C448.6 132.3 451.3 124.4 456.7 116.4C462.1 108.2 468.5 102.3 475.9 98.7C479.9 96.7 486.7 94.6 496.3 92.4C506.1 90 513.2 88.8 517.6 88.8C523.4 88.8 529.8 89.5 536.8 90.9C543.8 92.3 549.5 94.3 553.9 96.9C562.7 101.9 569.2 106.4 573.4 110.4C577.6 114.4 579.7 119.4 579.7 125.4C579.7 129 578.3 132.2 575.5 135C572.9 137.8 568.3 139.2 561.7 139.2C560.1 139.2 558.5 138.5 556.9 137.1C555.3 135.7 553.3 133.6 550.9 130.8C547.7 126.6 544.6 123.8 541.6 122.4C538.6 121.4 534.2 120.3 528.4 119.1C522.8 117.9 517.8 117.3 513.4 117.3C508.6 117.3 503.6 118.3 498.4 120.3C493.2 122.3 488.8 125.2 485.2 129C481.8 132.6 480.1 136.8 480.1 141.6C480.1 145.6 481.9 149.1 485.5 152.1C489.3 154.9 493.8 157.2 499 159C505 161.4 511.5 163.5 518.5 165.3C527.7 168.1 535.2 170.7 541 173.1C547 175.3 552.8 178.1 558.4 181.5C568.2 187.3 575.3 193.3 579.7 199.5C584.1 205.5 586.3 213.9 586.3 224.7ZM650.657 88.8C650.657 94 650.557 100.1 650.357 107.1C650.157 113.9 649.957 119.1 649.757 122.7C649.157 132.9 648.857 143.1 648.857 153.3C648.857 160.9 649.157 168.8 649.757 177C655.957 168 662.657 161.4 669.857 157.2C677.057 153 685.757 150.9 695.957 150.9C703.357 150.9 710.257 154.2 716.657 160.8C723.057 167.4 727.157 175.1 728.957 183.9C729.557 191.7 729.857 201.2 729.857 212.4C729.857 219.6 730.257 229 731.057 240.6C731.457 245 732.557 249.1 734.357 252.9C736.357 256.7 739.157 258.6 742.757 258.6C744.557 258.6 745.957 258.5 746.957 258.3C748.157 258.1 749.257 258 750.257 258C753.057 258 754.957 258.7 755.957 260.1C757.157 261.5 757.757 263.5 757.757 266.1C757.757 270.9 755.357 274.5 750.557 276.9C745.757 279.3 741.357 280.5 737.357 280.5C722.957 280.5 713.057 274.5 707.657 262.5C704.657 255.7 702.757 246.9 701.957 236.1C701.157 225.1 700.757 212.3 700.757 197.7C700.757 183.3 695.857 176.1 686.057 176.1C680.657 176.1 675.157 179 669.557 184.8C664.157 190.4 659.657 197.9 656.057 207.3C652.457 216.5 650.657 226.1 650.657 236.1L650.957 267.3C650.957 271.7 649.257 275 645.857 277.2C642.457 279.2 639.257 280.2 636.257 280.2C631.857 280.2 627.857 278.9 624.257 276.3C620.657 273.5 618.857 270.4 618.857 267C620.257 252 620.957 226.9 620.957 191.7C620.957 185.3 620.457 161.6 619.457 120.6L618.557 93C618.557 88.6 620.557 84.8 624.557 81.6C628.557 78.2 633.057 76.5 638.057 76.5C642.457 76.5 645.657 77.5 647.657 79.5C649.657 81.5 650.657 84.6 650.657 88.8ZM912.283 264.6C912.283 269 909.883 272.7 905.083 275.7C900.483 278.7 896.183 280.2 892.183 280.2C884.583 280.2 878.483 279.3 873.883 277.5C869.483 275.5 865.383 271.9 861.583 266.7C856.383 271.3 849.283 274.8 840.283 277.2C831.283 279.4 822.983 280.5 815.383 280.5C802.983 280.5 792.783 277.2 784.783 270.6C776.783 263.8 772.783 253.9 772.783 240.9C772.783 235.3 774.283 230.2 777.283 225.6C780.283 220.8 784.383 216.6 789.583 213C795.383 209.2 801.983 206.3 809.383 204.3C816.783 202.1 824.483 201 832.483 201C836.683 201 841.683 201.8 847.483 203.4C853.283 205 857.783 206.7 860.983 208.5V203.7C860.983 192.9 858.383 185.5 853.183 181.5C847.983 177.3 839.583 175.2 827.983 175.2C824.583 175.2 821.183 175.9 817.783 177.3C814.583 178.7 810.883 180.6 806.683 183C801.083 186 795.783 187.5 790.783 187.5C788.983 187.5 787.283 186.3 785.683 183.9C784.083 181.3 783.283 179 783.283 177C783.283 171.2 785.983 166.2 791.383 162C796.983 157.8 803.583 154.7 811.183 152.7C818.783 150.5 825.583 149.4 831.583 149.4C837.583 149.4 844.483 150.6 852.283 153C860.083 155.2 866.483 158.3 871.483 162.3C877.483 167.5 882.083 173.6 885.283 180.6C888.683 187.4 890.383 194.9 890.383 203.1C890.383 205.7 890.183 209.6 889.783 214.8C889.383 220.4 889.183 225.2 889.183 229.2C889.183 231 888.983 233.7 888.583 237.3C888.183 241.7 887.983 245.2 887.983 247.8C887.983 250.2 888.883 252.3 890.683 254.1C892.483 255.7 894.583 256.5 896.983 256.5L905.383 256.2C907.583 256.2 909.283 257 910.483 258.6C911.683 260.2 912.283 262.2 912.283 264.6ZM815.683 256.8C824.283 256.8 831.483 255.9 837.283 254.1C843.083 252.3 850.083 249 858.283 244.2C859.083 240.8 859.583 236.3 859.783 230.7C848.783 225.5 839.683 222.9 832.483 222.9C824.283 222.9 816.983 224.4 810.583 227.4C804.183 230.4 800.983 235.7 800.983 243.3C800.983 247.1 802.583 250.3 805.783 252.9C808.983 255.5 812.283 256.8 815.683 256.8ZM1016.23 214.2C1017.83 215.2 1020.93 217.1 1025.53 219.9C1030.33 222.5 1033.53 225.6 1035.13 229.2C1036.73 232.8 1037.53 237.8 1037.53 244.2C1037.53 251.4 1035.43 257.8 1031.23 263.4C1027.03 268.8 1021.63 273 1015.03 276C1010.43 278 1005.43 279.2 1000.03 279.6C994.828 280 988.528 280.2 981.128 280.2C977.128 280.2 971.928 279.6 965.528 278.4C959.328 277.2 955.028 276.1 952.628 275.1C946.228 271.5 940.828 267.3 936.428 262.5C932.028 257.7 929.828 252.8 929.828 247.8C929.828 243.8 931.128 240.6 933.728 238.2C936.328 235.8 939.728 234.6 943.928 234.6C946.128 234.6 948.228 235.2 950.228 236.4C952.428 237.4 953.928 238.6 954.728 240C956.928 245.2 960.628 249.1 965.828 251.7C971.028 254.3 976.328 255.6 981.728 255.6C1000.73 255.6 1010.23 252.2 1010.23 245.4C1010.23 243.6 1009.73 242.2 1008.73 241.2C1007.93 240 1006.73 238.8 1005.13 237.6C1002.53 235.8 998.828 233.9 994.028 231.9C989.428 229.9 985.328 228.4 981.728 227.4C973.528 225.6 965.528 222.9 957.728 219.3C950.528 215.7 944.628 211 940.028 205.2C935.428 199.2 933.128 191.9 933.128 183.3C933.128 178.1 935.028 173 938.828 168C942.828 162.8 947.428 158.9 952.628 156.3C956.228 154.9 962.128 153.4 970.328 151.8C978.528 150.2 984.128 149.4 987.128 149.4C991.728 149.4 996.728 149.9 1002.13 150.9C1007.53 151.7 1011.63 153.1 1014.43 155.1C1019.83 158.3 1024.23 161.7 1027.63 165.3C1031.03 168.7 1032.73 172.6 1032.73 177C1032.73 179.2 1032.23 181.6 1031.23 184.2C1030.23 186.6 1029.03 188.1 1027.63 188.7C1024.63 190.1 1021.13 190.8 1017.13 190.8C1015.33 190.8 1013.83 190.3 1012.63 189.3C1011.63 188.3 1010.23 186.7 1008.43 184.5C1006.23 181.1 1004.13 179.1 1002.13 178.5C999.728 177.9 996.228 177.2 991.628 176.4C987.028 175.4 983.928 174.9 982.328 174.9C977.328 174.9 972.528 175.9 967.928 177.9C963.528 179.9 961.328 182.6 961.328 186C961.328 190 964.628 193.4 971.228 196.2C975.428 198.2 980.028 199.9 985.028 201.3C990.228 202.7 993.428 203.6 994.628 204C997.428 204.6 1001.03 206 1005.43 208.2C1010.03 210.4 1013.63 212.4 1016.23 214.2ZM1102.12 88.8C1102.12 94 1102.02 100.1 1101.82 107.1C1101.62 113.9 1101.42 119.1 1101.22 122.7C1100.62 132.9 1100.32 143.1 1100.32 153.3C1100.32 166.7 1100.62 177.5 1101.22 185.7C1105.82 174.3 1112.32 165.7 1120.72 159.9C1129.12 153.9 1138.72 150.9 1149.52 150.9C1156.92 150.9 1163.82 154.2 1170.22 160.8C1176.62 167.4 1180.72 175.1 1182.52 183.9C1182.72 184.9 1182.82 186.4 1182.82 188.4C1182.82 190.8 1182.62 194.6 1182.22 199.8C1181.62 204 1181.32 208.2 1181.32 212.4C1181.32 223.2 1181.72 231.6 1182.52 237.6C1183.32 243.4 1185.02 248.2 1187.62 252C1190.22 255.6 1194.32 258.5 1199.92 260.7C1202.12 261.5 1203.62 262.6 1204.42 264C1205.42 265.2 1205.92 267.1 1205.92 269.7C1205.92 273.3 1204.02 276 1200.22 277.8C1196.62 279.6 1193.12 280.5 1189.72 280.5C1182.72 280.5 1176.42 278.6 1170.82 274.8C1165.22 271 1161.02 266 1158.22 259.8C1156.22 255.6 1154.92 250.6 1154.32 244.8C1153.72 239 1153.42 232.2 1153.42 224.4L1153.72 198.3C1153.72 184.1 1149.12 177 1139.92 177C1133.32 177 1126.92 182.4 1120.72 193.2C1114.52 204 1109.52 216.7 1105.72 231.3C1101.92 245.9 1100.02 257.9 1100.02 267.3C1100.02 271.7 1098.62 275 1095.82 277.2C1093.22 279.2 1090.52 280.2 1087.72 280.2C1083.32 280.2 1079.32 278.9 1075.72 276.3C1072.12 273.5 1070.32 270.4 1070.32 267C1071.72 252 1072.42 226.9 1072.42 191.7C1072.42 185.3 1071.92 161.6 1070.92 120.6L1070.02 93C1070.02 88.6 1072.02 84.8 1076.02 81.6C1080.02 78.2 1084.52 76.5 1089.52 76.5C1093.92 76.5 1097.12 77.5 1099.12 79.5C1101.12 81.5 1102.12 84.6 1102.12 88.8ZM1240.79 86.4C1247.79 87 1253.89 88.9 1259.09 92.1C1264.29 95.1 1266.89 99.7 1266.89 105.9C1266.89 110.5 1264.69 114.2 1260.29 117C1256.09 119.6 1250.99 120.9 1244.99 120.9C1239.19 120.9 1235.19 119.4 1232.99 116.4C1230.79 113.4 1229.69 110.3 1229.69 107.1C1229.69 101.1 1230.29 96.1 1231.49 92.1C1232.89 88.1 1235.99 86.2 1240.79 86.4ZM1264.79 219.3V228C1264.79 235.8 1264.99 243.2 1265.39 250.2C1265.99 257 1266.69 263.9 1267.49 270.9C1267.49 273.3 1266.09 275.5 1263.29 277.5C1260.49 279.3 1257.89 280.2 1255.49 280.2C1251.69 280.2 1247.79 279.5 1243.79 278.1C1239.99 276.5 1237.69 274.6 1236.89 272.4C1235.69 266 1235.09 260.3 1235.09 255.3C1235.09 238.9 1234.59 220.5 1233.59 200.1C1232.79 182.1 1232.39 169.5 1232.39 162.3C1232.39 158.7 1234.19 155.6 1237.79 153C1241.39 150.4 1245.19 149.1 1249.19 149.1C1254.99 149.1 1258.99 150.4 1261.19 153C1263.59 155.6 1264.79 159.7 1264.79 165.3V219.3ZM1325.35 280.2C1321.35 280.2 1317.95 279.5 1315.15 278.1C1312.35 276.7 1310.65 275.2 1310.05 273.6C1307.85 265.6 1306.75 255.1 1306.75 242.1C1306.75 218.1 1307.15 198.6 1307.95 183.6C1308.75 165.8 1309.15 148.7 1309.15 132.3C1309.15 127.5 1308.55 120.5 1307.35 111.3C1307.15 109.7 1306.85 106.8 1306.45 102.6C1306.05 98.4 1305.85 94.5 1305.85 90.9C1305.85 86.5 1307.35 83 1310.35 80.4C1313.55 77.8 1317.65 76.5 1322.65 76.5C1326.65 76.5 1329.85 77.8 1332.25 80.4C1334.85 82.8 1336.15 86.1 1336.15 90.3C1336.15 96.7 1336.35 105.7 1336.75 117.3C1337.15 128.1 1337.35 136.2 1337.35 141.6C1337.35 147.6 1337.15 155.6 1336.75 165.6C1336.35 171.6 1336.15 176 1336.15 178.8C1336.15 187.6 1336.25 194.9 1336.45 200.7C1343.85 193.3 1353.55 184.6 1365.55 174.6C1377.55 164.6 1386.85 157.6 1393.45 153.6C1400.45 149.4 1405.05 147.3 1407.25 147.3C1411.45 147.3 1415.05 148.2 1418.05 150C1421.05 151.8 1422.55 154.4 1422.55 157.8C1422.55 161.2 1422.05 163.9 1421.05 165.9C1420.05 167.9 1418.25 169.9 1415.65 171.9L1376.95 200.1C1381.35 202.3 1385.05 205.1 1388.05 208.5C1391.25 211.9 1394.45 216.1 1397.65 221.1C1404.45 232.3 1409.85 240.5 1413.85 245.7C1418.05 250.9 1421.85 253.5 1425.25 253.5L1432.75 253.2C1434.15 253.2 1435.35 254 1436.35 255.6C1437.55 257.2 1438.15 259.5 1438.15 262.5C1438.15 267.1 1435.85 270.8 1431.25 273.6C1426.85 276.4 1421.85 277.8 1416.25 277.8C1408.45 277.8 1401.55 274.8 1395.55 268.8C1389.55 262.6 1383.85 254.3 1378.45 243.9C1370.65 229.1 1362.95 220.3 1355.35 217.5L1336.15 233.1L1337.35 265.8C1337.35 271 1335.95 274.7 1333.15 276.9C1330.55 279.1 1327.95 280.2 1325.35 280.2ZM1593.43 264.6C1593.43 269 1591.03 272.7 1586.23 275.7C1581.43 278.7 1577.03 280.2 1573.03 280.2C1565.63 280.2 1559.63 279.3 1555.03 277.5C1550.63 275.5 1546.43 271.9 1542.43 266.7C1537.43 271.3 1530.43 274.8 1521.43 277.2C1512.43 279.4 1504.13 280.5 1496.53 280.5C1484.13 280.5 1473.83 277.2 1465.63 270.6C1457.63 263.8 1453.63 253.9 1453.63 240.9C1453.63 235.3 1455.33 229.7 1458.73 224.1C1462.13 218.3 1466.33 213.7 1471.33 210.3C1476.73 206.7 1482.83 204.3 1489.63 203.1C1496.43 201.7 1504.33 201 1513.33 201C1517.53 201 1522.53 201.8 1528.33 203.4C1534.13 205 1538.73 206.7 1542.13 208.5V203.7C1542.13 192.9 1539.43 185.5 1534.03 181.5C1528.83 177.3 1520.43 175.2 1508.83 175.2C1505.23 175.2 1501.93 175.8 1498.93 177C1496.13 178 1492.83 179.5 1489.03 181.5C1485.43 183.5 1482.03 184.5 1478.83 184.5C1476.03 184.5 1473.33 183.4 1470.73 181.2C1468.13 178.8 1466.83 176.3 1466.83 173.7C1466.83 165.3 1472.03 159.2 1482.43 155.4C1493.03 151.4 1503.83 149.4 1514.83 149.4C1520.43 149.4 1526.83 150.6 1534.03 153C1541.23 155.2 1547.33 158.3 1552.33 162.3C1558.33 167.3 1562.93 173.3 1566.13 180.3C1569.53 187.3 1571.23 194.9 1571.23 203.1C1571.23 205.7 1571.03 209.6 1570.63 214.8C1570.23 220.4 1570.03 225.2 1570.03 229.2L1569.73 237.3C1569.33 241.7 1569.13 245.2 1569.13 247.8C1569.13 250.2 1569.93 252.3 1571.53 254.1C1573.33 255.7 1575.43 256.5 1577.83 256.5L1586.23 256.2C1588.43 256.2 1590.13 257.1 1591.33 258.9C1592.73 260.5 1593.43 262.4 1593.43 264.6ZM1496.53 256.8C1505.13 256.8 1512.33 255.9 1518.13 254.1C1523.93 252.3 1530.93 249 1539.13 244.2C1539.93 240.8 1540.43 236.3 1540.63 230.7C1529.63 225.5 1520.53 222.9 1513.33 222.9C1506.53 222.9 1501.03 223.2 1496.83 223.8C1492.63 224.2 1488.83 225.9 1485.43 228.9C1482.03 231.9 1480.33 236.7 1480.33 243.3C1480.33 247.1 1482.13 250.3 1485.73 252.9C1489.53 255.5 1493.13 256.8 1496.53 256.8ZM1610.39 173.4C1608.79 172.2 1607.49 171 1606.49 169.8C1605.49 168.4 1604.99 166 1604.99 162.6C1604.99 158.8 1606.29 155.9 1608.89 153.9C1611.69 151.7 1614.89 150.6 1618.49 150.6C1625.49 150.6 1631.49 152.4 1636.49 156C1641.69 159.6 1645.49 164.6 1647.89 171C1652.29 162.8 1657.89 157.2 1664.69 154.2C1671.49 151 1680.89 149.4 1692.89 149.4C1697.69 149.4 1702.59 150.9 1707.59 153.9C1712.79 156.7 1717.49 160.2 1721.69 164.4C1725.09 168.8 1727.99 174.3 1730.39 180.9C1732.79 187.3 1733.99 193.1 1733.99 198.3C1733.99 201.3 1733.79 206.2 1733.39 213C1732.99 220.2 1732.79 225.9 1732.79 230.1C1732.79 244.1 1735.49 252.7 1740.89 255.9C1741.69 256.3 1743.19 256.8 1745.39 257.4C1747.59 258 1749.19 258.6 1750.19 259.2C1751.39 259.8 1751.99 260.7 1751.99 261.9C1752.19 266.7 1750.39 270.7 1746.59 273.9C1742.99 276.9 1738.59 278.4 1733.39 278.4C1725.59 278.4 1719.49 276.3 1715.09 272.1C1710.69 267.9 1707.59 261.5 1705.79 252.9C1704.79 249.7 1704.29 245 1704.29 238.8C1704.29 235.4 1704.49 229.9 1704.89 222.3C1705.49 216.3 1705.79 209.9 1705.79 203.1C1705.79 196.1 1703.79 190 1699.79 184.8C1695.79 179.4 1690.29 176.7 1683.29 176.7C1679.09 176.7 1674.69 178 1670.09 180.6C1665.49 183 1662.29 186 1660.49 189.6C1657.49 195.8 1655.49 202.1 1654.49 208.5C1652.09 220.9 1650.89 232.8 1650.89 244.2C1650.89 247 1651.09 252.4 1651.49 260.4C1651.49 261 1651.49 262.5 1651.49 264.9C1651.49 267.1 1651.19 269.2 1650.59 271.2C1650.19 273.2 1649.39 275 1648.19 276.6C1647.39 277.4 1645.89 278.2 1643.69 279C1641.49 279.8 1639.59 280.2 1637.99 280.2C1635.19 280.2 1631.69 279 1627.49 276.6C1623.29 274.2 1620.79 271.5 1619.99 268.5L1619.69 264.3C1619.69 262.7 1619.89 260.3 1620.29 257.1C1622.69 243.1 1623.89 230.9 1623.89 220.5C1623.89 215.9 1623.79 212.4 1623.59 210L1623.29 196.2C1623.29 192 1622.09 188 1619.69 184.2C1617.29 180.2 1614.19 176.6 1610.39 173.4ZM1773.36 175.2C1770.56 174.8 1768.26 173.6 1766.46 171.6C1764.86 169.6 1764.06 167.2 1764.06 164.4C1764.06 163 1764.36 161.5 1764.96 159.9C1765.76 158.3 1766.86 156.9 1768.26 155.7C1770.86 153.5 1774.36 151.4 1778.76 149.4C1783.36 147.6 1786.66 145.4 1788.66 142.8C1790.66 140.2 1791.66 135.3 1791.66 128.1C1791.66 125.1 1791.46 122.5 1791.06 120.3C1790.86 118.1 1790.76 116.4 1790.76 115.2C1790.76 110.8 1792.36 107.5 1795.56 105.3C1798.76 103.1 1802.46 102 1806.66 102C1811.86 102 1815.36 103.3 1817.16 105.9C1819.16 108.5 1820.16 113.3 1820.16 120.3C1820.16 127.1 1819.86 133 1819.26 138C1818.66 142.8 1817.36 147.1 1815.36 150.9C1818.16 150.9 1822.76 150.7 1829.16 150.3C1837.96 149.9 1844.06 149.7 1847.46 149.7C1850.86 149.7 1853.86 150.6 1856.46 152.4C1859.06 154 1860.36 156.3 1860.36 159.3C1860.36 163.5 1859.46 166.6 1857.66 168.6C1855.86 170.6 1853.26 171.9 1849.86 172.5C1841.66 174.7 1830.06 176 1815.06 176.4C1814.66 184.2 1814.46 192.7 1814.46 201.9C1814.46 217.3 1815.36 229.1 1817.16 237.3C1818.36 243.7 1820.36 248.4 1823.16 251.4C1826.16 254.2 1830.56 255.6 1836.36 255.6C1839.36 255.6 1841.76 255.2 1843.56 254.4C1845.56 253.6 1846.66 253.1 1846.86 252.9C1849.26 251.5 1851.46 250.8 1853.46 250.8C1856.26 250.8 1858.26 251.7 1859.46 253.5C1860.86 255.3 1861.56 257.7 1861.56 260.7C1861.56 266.3 1858.56 271 1852.56 274.8C1846.56 278.4 1838.86 280.2 1829.46 280.2C1818.86 280.2 1809.86 277.1 1802.46 270.9C1795.26 264.5 1790.96 256.1 1789.56 245.7C1787.56 236.3 1786.56 223.1 1786.56 206.1C1786.56 198.7 1786.96 188.8 1787.76 176.4L1773.36 175.2Z" fill="#303031"/>
</g>
<defs>
<clipPath id="clip0_1_50">
<rect width="2089" height="344" fill="white"/>
</clipPath>
</defs>
</svg>
