<svg width="230" height="50" viewBox="0 0 230 50" fill="none" xmlns="http://www.w3.org/2000/svg">
<path d="M40 0H10C4.47715 0 0 4.47715 0 10V40C0 45.5228 4.47715 50 10 50H40C45.5228 50 50 45.5228 50 40V10C50 4.47715 45.5228 0 40 0Z" fill="#D3D3D3"/>
<path d="M28.7322 20.4567C28.647 19.5973 28.2813 18.9297 27.6349 18.4538C26.9886 17.978 26.1115 17.7401 25.0036 17.7401C24.2507 17.7401 23.6151 17.8466 23.0966 18.0597C22.5781 18.2656 22.1804 18.5533 21.9034 18.9226C21.6335 19.2919 21.4986 19.7109 21.4986 20.1797C21.4844 20.5703 21.5661 20.9112 21.7436 21.2024C21.9283 21.4936 22.1804 21.7457 22.5 21.9588C22.8196 22.1648 23.1889 22.3459 23.608 22.5021C24.027 22.6513 24.4744 22.7791 24.9503 22.8857L26.9105 23.3544C27.8622 23.5675 28.7358 23.8516 29.5312 24.2067C30.3267 24.5618 31.0156 24.9986 31.598 25.517C32.1804 26.0355 32.6314 26.6463 32.951 27.3494C33.2777 28.0526 33.4446 28.8587 33.4517 29.7678C33.4446 31.103 33.1037 32.2607 32.429 33.2408C31.7614 34.2138 30.7955 34.9702 29.5312 35.5099C28.2741 36.0426 26.7578 36.3089 24.9822 36.3089C23.2209 36.3089 21.6868 36.0391 20.38 35.4993C19.0803 34.9595 18.0646 34.1605 17.3331 33.1023C16.6087 32.0369 16.2287 30.7195 16.1932 29.1499H20.657C20.7067 29.8814 20.9162 30.4922 21.2855 30.9822C21.6619 31.4652 22.1626 31.831 22.7876 32.0795C23.4197 32.321 24.1335 32.4418 24.929 32.4418C25.7102 32.4418 26.3885 32.3281 26.9638 32.1009C27.5462 31.8736 27.9972 31.5575 28.3168 31.1527C28.6364 30.7479 28.7962 30.2827 28.7962 29.7571C28.7962 29.267 28.6506 28.8551 28.3594 28.5213C28.0753 28.1875 27.6563 27.9034 27.1023 27.669C26.5554 27.4347 25.8842 27.2216 25.0888 27.0298L22.7131 26.4332C20.8736 25.9858 19.4212 25.2862 18.3558 24.3345C17.2905 23.3828 16.7614 22.1009 16.7685 20.4886C16.7614 19.1676 17.1129 18.0135 17.8232 17.0263C18.5405 16.0391 19.5241 15.2685 20.7741 14.7145C22.0241 14.1605 23.4446 13.8835 25.0355 13.8835C26.6548 13.8835 28.0682 14.1605 29.2756 14.7145C30.4901 15.2685 31.4347 16.0391 32.1094 17.0263C32.7841 18.0135 33.1321 19.157 33.1534 20.4567H28.7322Z" fill="#00008B"/>
<path d="M76.756 30.484C76.756 31.612 76.492 32.584 75.964 33.4C75.46 34.192 74.62 34.924 73.444 35.596C72.652 36.076 71.728 36.436 70.672 36.676C69.616 36.916 68.548 37.036 67.468 37.036C66.364 37.036 64.996 36.676 63.364 35.956C62.188 35.38 61.252 34.696 60.556 33.904C59.884 33.112 59.548 32.248 59.548 31.312C59.548 30.664 59.692 30.196 59.98 29.908C60.268 29.596 60.736 29.44 61.384 29.44C61.72 29.44 62.068 29.584 62.428 29.872C62.788 30.136 63.004 30.4 63.076 30.664C63.412 31.648 64 32.404 64.84 32.932C65.68 33.436 66.724 33.688 67.972 33.688C69.412 33.688 70.612 33.424 71.572 32.896C72.556 32.368 73.048 31.66 73.048 30.772C73.048 29.908 72.52 29.14 71.464 28.468C70.408 27.796 69.328 27.328 68.224 27.064C66.64 26.632 65.236 26.116 64.012 25.516C62.74 24.892 61.792 24.124 61.168 23.212C60.544 22.3 60.232 21.34 60.232 20.332C60.232 19.396 60.556 18.448 61.204 17.488C61.852 16.504 62.62 15.796 63.508 15.364C63.988 15.124 64.804 14.872 65.956 14.608C67.132 14.32 67.984 14.176 68.512 14.176C69.208 14.176 69.976 14.26 70.816 14.428C71.656 14.596 72.34 14.836 72.868 15.148C73.924 15.748 74.704 16.288 75.208 16.768C75.712 17.248 75.964 17.848 75.964 18.568C75.964 19 75.796 19.384 75.46 19.72C75.148 20.056 74.596 20.224 73.804 20.224C73.612 20.224 73.42 20.14 73.228 19.972C73.036 19.804 72.796 19.552 72.508 19.216C72.124 18.712 71.752 18.376 71.392 18.208C71.032 18.088 70.504 17.956 69.808 17.812C69.136 17.668 68.536 17.596 68.008 17.596C67.432 17.596 66.832 17.716 66.208 17.956C65.584 18.196 65.056 18.544 64.624 19C64.216 19.432 64.012 19.936 64.012 20.512C64.012 20.992 64.228 21.412 64.66 21.772C65.116 22.108 65.656 22.384 66.28 22.6C67 22.888 67.78 23.14 68.62 23.356C69.724 23.692 70.624 24.004 71.32 24.292C72.04 24.556 72.736 24.892 73.408 25.3C74.584 25.996 75.436 26.716 75.964 27.46C76.492 28.18 76.756 29.188 76.756 30.484ZM84.4788 14.176C84.4788 14.8 84.4668 15.532 84.4428 16.372C84.4188 17.188 84.3948 17.812 84.3708 18.244C84.2988 19.468 84.2628 20.692 84.2628 21.916C84.2628 22.828 84.2988 23.776 84.3708 24.76C85.1148 23.68 85.9188 22.888 86.7828 22.384C87.6468 21.88 88.6908 21.628 89.9148 21.628C90.8028 21.628 91.6308 22.024 92.3988 22.816C93.1668 23.608 93.6588 24.532 93.8748 25.588C93.9468 26.524 93.9828 27.664 93.9828 29.008C93.9828 29.872 94.0308 31 94.1268 32.392C94.1748 32.92 94.3068 33.412 94.5228 33.868C94.7628 34.324 95.0988 34.552 95.5308 34.552C95.7468 34.552 95.9148 34.54 96.0348 34.516C96.1788 34.492 96.3108 34.48 96.4308 34.48C96.7668 34.48 96.9948 34.564 97.1148 34.732C97.2588 34.9 97.3308 35.14 97.3308 35.452C97.3308 36.028 97.0428 36.46 96.4668 36.748C95.8908 37.036 95.3628 37.18 94.8828 37.18C93.1548 37.18 91.9668 36.46 91.3188 35.02C90.9588 34.204 90.7308 33.148 90.6348 31.852C90.5388 30.532 90.4908 28.996 90.4908 27.244C90.4908 25.516 89.9028 24.652 88.7268 24.652C88.0788 24.652 87.4188 25 86.7468 25.696C86.0988 26.368 85.5588 27.268 85.1268 28.396C84.6948 29.5 84.4788 30.652 84.4788 31.852L84.5148 35.596C84.5148 36.124 84.3108 36.52 83.9028 36.784C83.4948 37.024 83.1108 37.144 82.7508 37.144C82.2228 37.144 81.7428 36.988 81.3108 36.676C80.8788 36.34 80.6628 35.968 80.6628 35.56C80.8308 33.76 80.9148 30.748 80.9148 26.524C80.9148 25.756 80.8548 22.912 80.7348 17.992L80.6268 14.68C80.6268 14.152 80.8668 13.696 81.3468 13.312C81.8268 12.904 82.3668 12.7 82.9668 12.7C83.4948 12.7 83.8788 12.82 84.1188 13.06C84.3588 13.3 84.4788 13.672 84.4788 14.176ZM115.874 35.272C115.874 35.8 115.586 36.244 115.01 36.604C114.458 36.964 113.942 37.144 113.462 37.144C112.55 37.144 111.818 37.036 111.266 36.82C110.738 36.58 110.246 36.148 109.79 35.524C109.166 36.076 108.314 36.496 107.234 36.784C106.154 37.048 105.158 37.18 104.246 37.18C102.758 37.18 101.534 36.784 100.574 35.992C99.6139 35.176 99.1339 33.988 99.1339 32.428C99.1339 31.756 99.3139 31.144 99.6739 30.592C100.034 30.016 100.526 29.512 101.15 29.08C101.846 28.624 102.638 28.276 103.526 28.036C104.414 27.772 105.338 27.64 106.298 27.64C106.802 27.64 107.402 27.736 108.098 27.928C108.794 28.12 109.334 28.324 109.718 28.54V27.964C109.718 26.668 109.406 25.78 108.782 25.3C108.158 24.796 107.15 24.544 105.758 24.544C105.35 24.544 104.942 24.628 104.534 24.796C104.15 24.964 103.706 25.192 103.202 25.48C102.53 25.84 101.894 26.02 101.294 26.02C101.078 26.02 100.874 25.876 100.682 25.588C100.49 25.276 100.394 25 100.394 24.76C100.394 24.064 100.718 23.464 101.366 22.96C102.038 22.456 102.83 22.084 103.742 21.844C104.654 21.58 105.47 21.448 106.19 21.448C106.91 21.448 107.738 21.592 108.674 21.88C109.61 22.144 110.378 22.516 110.978 22.996C111.698 23.62 112.25 24.352 112.634 25.192C113.042 26.008 113.246 26.908 113.246 27.892C113.246 28.204 113.222 28.672 113.174 29.296C113.126 29.968 113.102 30.544 113.102 31.024C113.102 31.24 113.078 31.564 113.03 31.996C112.982 32.524 112.958 32.944 112.958 33.256C112.958 33.544 113.066 33.796 113.282 34.012C113.498 34.204 113.75 34.3 114.038 34.3L115.046 34.264C115.31 34.264 115.514 34.36 115.658 34.552C115.802 34.744 115.874 34.984 115.874 35.272ZM104.282 34.336C105.314 34.336 106.178 34.228 106.874 34.012C107.57 33.796 108.41 33.4 109.394 32.824C109.49 32.416 109.55 31.876 109.574 31.204C108.254 30.58 107.162 30.268 106.298 30.268C105.314 30.268 104.438 30.448 103.67 30.808C102.902 31.168 102.518 31.804 102.518 32.716C102.518 33.172 102.71 33.556 103.094 33.868C103.478 34.18 103.874 34.336 104.282 34.336ZM128.347 29.224C128.539 29.344 128.911 29.572 129.463 29.908C130.039 30.22 130.423 30.592 130.615 31.024C130.807 31.456 130.903 32.056 130.903 32.824C130.903 33.688 130.651 34.456 130.147 35.128C129.643 35.776 128.995 36.28 128.203 36.64C127.651 36.88 127.051 37.024 126.403 37.072C125.779 37.12 125.023 37.144 124.135 37.144C123.655 37.144 123.031 37.072 122.263 36.928C121.519 36.784 121.003 36.652 120.715 36.532C119.947 36.1 119.299 35.596 118.771 35.02C118.243 34.444 117.979 33.856 117.979 33.256C117.979 32.776 118.135 32.392 118.447 32.104C118.759 31.816 119.167 31.672 119.671 31.672C119.935 31.672 120.187 31.744 120.427 31.888C120.691 32.008 120.871 32.152 120.967 32.32C121.231 32.944 121.675 33.412 122.299 33.724C122.923 34.036 123.559 34.192 124.207 34.192C126.487 34.192 127.627 33.784 127.627 32.968C127.627 32.752 127.567 32.584 127.447 32.464C127.351 32.32 127.207 32.176 127.015 32.032C126.703 31.816 126.259 31.588 125.683 31.348C125.131 31.108 124.639 30.928 124.207 30.808C123.223 30.592 122.263 30.268 121.327 29.836C120.463 29.404 119.755 28.84 119.203 28.144C118.651 27.424 118.375 26.548 118.375 25.516C118.375 24.892 118.603 24.28 119.059 23.68C119.539 23.056 120.091 22.588 120.715 22.276C121.147 22.108 121.855 21.928 122.839 21.736C123.823 21.544 124.495 21.448 124.855 21.448C125.407 21.448 126.007 21.508 126.655 21.628C127.303 21.724 127.795 21.892 128.131 22.132C128.779 22.516 129.307 22.924 129.715 23.356C130.123 23.764 130.327 24.232 130.327 24.76C130.327 25.024 130.267 25.312 130.147 25.624C130.027 25.912 129.883 26.092 129.715 26.164C129.355 26.332 128.935 26.416 128.455 26.416C128.239 26.416 128.059 26.356 127.915 26.236C127.795 26.116 127.627 25.924 127.411 25.66C127.147 25.252 126.895 25.012 126.655 24.94C126.367 24.868 125.947 24.784 125.395 24.688C124.843 24.568 124.471 24.508 124.279 24.508C123.679 24.508 123.103 24.628 122.551 24.868C122.023 25.108 121.759 25.432 121.759 25.84C121.759 26.32 122.155 26.728 122.947 27.064C123.451 27.304 124.003 27.508 124.603 27.676C125.227 27.844 125.611 27.952 125.755 28C126.091 28.072 126.523 28.24 127.051 28.504C127.603 28.768 128.035 29.008 128.347 29.224ZM138.655 14.176C138.655 14.8 138.643 15.532 138.619 16.372C138.595 17.188 138.571 17.812 138.547 18.244C138.475 19.468 138.439 20.692 138.439 21.916C138.439 23.524 138.475 24.82 138.547 25.804C139.099 24.436 139.879 23.404 140.887 22.708C141.895 21.988 143.047 21.628 144.343 21.628C145.231 21.628 146.059 22.024 146.827 22.816C147.595 23.608 148.087 24.532 148.303 25.588C148.327 25.708 148.339 25.888 148.339 26.128C148.339 26.416 148.315 26.872 148.267 27.496C148.195 28 148.159 28.504 148.159 29.008C148.159 30.304 148.207 31.312 148.303 32.032C148.399 32.728 148.603 33.304 148.915 33.76C149.227 34.192 149.719 34.54 150.391 34.804C150.655 34.9 150.835 35.032 150.931 35.2C151.051 35.344 151.111 35.572 151.111 35.884C151.111 36.316 150.883 36.64 150.427 36.856C149.995 37.072 149.575 37.18 149.167 37.18C148.327 37.18 147.571 36.952 146.899 36.496C146.227 36.04 145.723 35.44 145.387 34.696C145.147 34.192 144.991 33.592 144.919 32.896C144.847 32.2 144.811 31.384 144.811 30.448L144.847 27.316C144.847 25.612 144.295 24.76 143.191 24.76C142.399 24.76 141.631 25.408 140.887 26.704C140.143 28 139.543 29.524 139.087 31.276C138.631 33.028 138.403 34.468 138.403 35.596C138.403 36.124 138.235 36.52 137.899 36.784C137.587 37.024 137.263 37.144 136.927 37.144C136.399 37.144 135.919 36.988 135.487 36.676C135.055 36.34 134.839 35.968 134.839 35.56C135.007 33.76 135.091 30.748 135.091 26.524C135.091 25.756 135.031 22.912 134.911 17.992L134.803 14.68C134.803 14.152 135.043 13.696 135.523 13.312C136.003 12.904 136.543 12.7 137.143 12.7C137.671 12.7 138.055 12.82 138.295 13.06C138.535 13.3 138.655 13.672 138.655 14.176ZM155.295 13.888C156.135 13.96 156.867 14.188 157.491 14.572C158.115 14.932 158.427 15.484 158.427 16.228C158.427 16.78 158.163 17.224 157.635 17.56C157.131 17.872 156.519 18.028 155.799 18.028C155.103 18.028 154.623 17.848 154.359 17.488C154.095 17.128 153.963 16.756 153.963 16.372C153.963 15.652 154.035 15.052 154.179 14.572C154.347 14.092 154.719 13.864 155.295 13.888ZM158.175 29.836V30.88C158.175 31.816 158.199 32.704 158.247 33.544C158.319 34.36 158.403 35.188 158.499 36.028C158.499 36.316 158.331 36.58 157.995 36.82C157.659 37.036 157.347 37.144 157.059 37.144C156.603 37.144 156.135 37.06 155.655 36.892C155.199 36.7 154.923 36.472 154.827 36.208C154.683 35.44 154.611 34.756 154.611 34.156C154.611 32.188 154.551 29.98 154.431 27.532C154.335 25.372 154.287 23.86 154.287 22.996C154.287 22.564 154.503 22.192 154.935 21.88C155.367 21.568 155.823 21.412 156.303 21.412C156.999 21.412 157.479 21.568 157.743 21.88C158.031 22.192 158.175 22.684 158.175 23.356V29.836ZM165.442 37.144C164.962 37.144 164.554 37.06 164.218 36.892C163.882 36.724 163.678 36.544 163.606 36.352C163.342 35.392 163.21 34.132 163.21 32.572C163.21 29.692 163.258 27.352 163.354 25.552C163.45 23.416 163.498 21.364 163.498 19.396C163.498 18.82 163.426 17.98 163.282 16.876C163.258 16.684 163.222 16.336 163.174 15.832C163.126 15.328 163.102 14.86 163.102 14.428C163.102 13.9 163.282 13.48 163.642 13.168C164.026 12.856 164.518 12.7 165.118 12.7C165.598 12.7 165.982 12.856 166.27 13.168C166.582 13.456 166.738 13.852 166.738 14.356C166.738 15.124 166.762 16.204 166.81 17.596C166.858 18.892 166.882 19.864 166.882 20.512C166.882 21.232 166.858 22.192 166.81 23.392C166.762 24.112 166.738 24.64 166.738 24.976C166.738 26.032 166.75 26.908 166.774 27.604C167.662 26.716 168.826 25.672 170.266 24.472C171.706 23.272 172.822 22.432 173.614 21.952C174.454 21.448 175.006 21.196 175.27 21.196C175.774 21.196 176.206 21.304 176.566 21.52C176.926 21.736 177.106 22.048 177.106 22.456C177.106 22.864 177.046 23.188 176.926 23.428C176.806 23.668 176.59 23.908 176.278 24.148L171.634 27.532C172.162 27.796 172.606 28.132 172.966 28.54C173.35 28.948 173.734 29.452 174.118 30.052C174.934 31.396 175.582 32.38 176.062 33.004C176.566 33.628 177.022 33.94 177.43 33.94L178.33 33.904C178.498 33.904 178.642 34 178.762 34.192C178.906 34.384 178.978 34.66 178.978 35.02C178.978 35.572 178.702 36.016 178.15 36.352C177.622 36.688 177.022 36.856 176.35 36.856C175.414 36.856 174.586 36.496 173.866 35.776C173.146 35.032 172.462 34.036 171.814 32.788C170.878 31.012 169.954 29.956 169.042 29.62L166.738 31.492L166.882 35.416C166.882 36.04 166.714 36.484 166.378 36.748C166.066 37.012 165.754 37.144 165.442 37.144ZM197.611 35.272C197.611 35.8 197.323 36.244 196.747 36.604C196.171 36.964 195.643 37.144 195.163 37.144C194.275 37.144 193.555 37.036 193.003 36.82C192.475 36.58 191.971 36.148 191.491 35.524C190.891 36.076 190.051 36.496 188.971 36.784C187.891 37.048 186.895 37.18 185.983 37.18C184.495 37.18 183.259 36.784 182.275 35.992C181.315 35.176 180.835 33.988 180.835 32.428C180.835 31.756 181.039 31.084 181.447 30.412C181.855 29.716 182.359 29.164 182.959 28.756C183.607 28.324 184.339 28.036 185.155 27.892C185.971 27.724 186.919 27.64 187.999 27.64C188.503 27.64 189.103 27.736 189.799 27.928C190.495 28.12 191.047 28.324 191.455 28.54V27.964C191.455 26.668 191.131 25.78 190.483 25.3C189.859 24.796 188.851 24.544 187.459 24.544C187.027 24.544 186.631 24.616 186.271 24.76C185.935 24.88 185.539 25.06 185.083 25.3C184.651 25.54 184.243 25.66 183.859 25.66C183.523 25.66 183.199 25.528 182.887 25.264C182.575 24.976 182.419 24.676 182.419 24.364C182.419 23.356 183.043 22.624 184.291 22.168C185.563 21.688 186.859 21.448 188.179 21.448C188.851 21.448 189.619 21.592 190.483 21.88C191.347 22.144 192.079 22.516 192.679 22.996C193.399 23.596 193.951 24.316 194.335 25.156C194.743 25.996 194.947 26.908 194.947 27.892C194.947 28.204 194.923 28.672 194.875 29.296C194.827 29.968 194.803 30.544 194.803 31.024L194.767 31.996C194.719 32.524 194.695 32.944 194.695 33.256C194.695 33.544 194.791 33.796 194.983 34.012C195.199 34.204 195.451 34.3 195.739 34.3L196.747 34.264C197.011 34.264 197.215 34.372 197.359 34.588C197.527 34.78 197.611 35.008 197.611 35.272ZM185.983 34.336C187.015 34.336 187.879 34.228 188.575 34.012C189.271 33.796 190.111 33.4 191.095 32.824C191.191 32.416 191.251 31.876 191.275 31.204C189.955 30.58 188.863 30.268 187.999 30.268C187.183 30.268 186.523 30.304 186.019 30.376C185.515 30.424 185.059 30.628 184.651 30.988C184.243 31.348 184.039 31.924 184.039 32.716C184.039 33.172 184.255 33.556 184.687 33.868C185.143 34.18 185.575 34.336 185.983 34.336ZM199.647 24.328C199.455 24.184 199.299 24.04 199.179 23.896C199.059 23.728 198.999 23.44 198.999 23.032C198.999 22.576 199.155 22.228 199.467 21.988C199.803 21.724 200.187 21.592 200.619 21.592C201.459 21.592 202.179 21.808 202.779 22.24C203.403 22.672 203.859 23.272 204.147 24.04C204.675 23.056 205.347 22.384 206.163 22.024C206.979 21.64 208.107 21.448 209.547 21.448C210.123 21.448 210.711 21.628 211.311 21.988C211.935 22.324 212.499 22.744 213.003 23.248C213.411 23.776 213.759 24.436 214.047 25.228C214.335 25.996 214.479 26.692 214.479 27.316C214.479 27.676 214.455 28.264 214.407 29.08C214.359 29.944 214.335 30.628 214.335 31.132C214.335 32.812 214.659 33.844 215.307 34.228C215.403 34.276 215.583 34.336 215.847 34.408C216.111 34.48 216.303 34.552 216.423 34.624C216.567 34.696 216.639 34.804 216.639 34.948C216.663 35.524 216.447 36.004 215.991 36.388C215.559 36.748 215.031 36.928 214.407 36.928C213.471 36.928 212.739 36.676 212.211 36.172C211.683 35.668 211.311 34.9 211.095 33.868C210.975 33.484 210.915 32.92 210.915 32.176C210.915 31.768 210.939 31.108 210.987 30.196C211.059 29.476 211.095 28.708 211.095 27.892C211.095 27.052 210.855 26.32 210.375 25.696C209.895 25.048 209.235 24.724 208.395 24.724C207.891 24.724 207.363 24.88 206.811 25.192C206.259 25.48 205.875 25.84 205.659 26.272C205.299 27.016 205.059 27.772 204.939 28.54C204.651 30.028 204.507 31.456 204.507 32.824C204.507 33.16 204.531 33.808 204.579 34.768C204.579 34.84 204.579 35.02 204.579 35.308C204.579 35.572 204.543 35.824 204.471 36.064C204.423 36.304 204.327 36.52 204.183 36.712C204.087 36.808 203.907 36.904 203.643 37C203.379 37.096 203.151 37.144 202.959 37.144C202.623 37.144 202.203 37 201.699 36.712C201.195 36.424 200.895 36.1 200.799 35.74L200.763 35.236C200.763 35.044 200.787 34.756 200.835 34.372C201.123 32.692 201.267 31.228 201.267 29.98C201.267 29.428 201.255 29.008 201.231 28.72L201.195 27.064C201.195 26.56 201.051 26.08 200.763 25.624C200.475 25.144 200.103 24.712 199.647 24.328ZM219.203 24.544C218.867 24.496 218.591 24.352 218.375 24.112C218.183 23.872 218.087 23.584 218.087 23.248C218.087 23.08 218.123 22.9 218.195 22.708C218.291 22.516 218.423 22.348 218.591 22.204C218.903 21.94 219.323 21.688 219.851 21.448C220.403 21.232 220.799 20.968 221.039 20.656C221.279 20.344 221.399 19.756 221.399 18.892C221.399 18.532 221.375 18.22 221.327 17.956C221.303 17.692 221.291 17.488 221.291 17.344C221.291 16.816 221.483 16.42 221.867 16.156C222.251 15.892 222.695 15.76 223.199 15.76C223.823 15.76 224.243 15.916 224.459 16.228C224.699 16.54 224.819 17.116 224.819 17.956C224.819 18.772 224.783 19.48 224.711 20.08C224.639 20.656 224.483 21.172 224.243 21.628C224.579 21.628 225.131 21.604 225.899 21.556C226.955 21.508 227.687 21.484 228.095 21.484C228.503 21.484 228.863 21.592 229.175 21.808C229.487 22 229.643 22.276 229.643 22.636C229.643 23.14 229.535 23.512 229.319 23.752C229.103 23.992 228.791 24.148 228.383 24.22C227.399 24.484 226.007 24.64 224.207 24.688C224.159 25.624 224.135 26.644 224.135 27.748C224.135 29.596 224.243 31.012 224.459 31.996C224.603 32.764 224.843 33.328 225.179 33.688C225.539 34.024 226.067 34.192 226.763 34.192C227.123 34.192 227.411 34.144 227.627 34.048C227.867 33.952 227.999 33.892 228.023 33.868C228.311 33.7 228.575 33.616 228.815 33.616C229.151 33.616 229.391 33.724 229.535 33.94C229.703 34.156 229.787 34.444 229.787 34.804C229.787 35.476 229.427 36.04 228.707 36.496C227.987 36.928 227.063 37.144 225.935 37.144C224.663 37.144 223.583 36.772 222.695 36.028C221.831 35.26 221.315 34.252 221.147 33.004C220.907 31.876 220.787 30.292 220.787 28.252C220.787 27.364 220.835 26.176 220.931 24.688L219.203 24.544Z" fill="#F2EBEB"/>
</svg>
