<svg width="195" height="50" viewBox="0 0 195 50" fill="none" xmlns="http://www.w3.org/2000/svg">
<path d="M40 0H10C4.47715 0 0 4.47715 0 10V40C0 45.5228 4.47715 50 10 50H40C45.5228 50 50 45.5228 50 40V10C50 4.47715 45.5228 0 40 0Z" fill="#D3D3D3"/>
<path d="M28.7322 20.4567C28.647 19.5973 28.2813 18.9297 27.6349 18.4538C26.9886 17.978 26.1115 17.7401 25.0036 17.7401C24.2507 17.7401 23.6151 17.8466 23.0966 18.0597C22.5781 18.2656 22.1804 18.5533 21.9034 18.9226C21.6335 19.2919 21.4986 19.7109 21.4986 20.1797C21.4844 20.5703 21.5661 20.9112 21.7436 21.2024C21.9283 21.4936 22.1804 21.7457 22.5 21.9588C22.8196 22.1648 23.1889 22.3459 23.608 22.5021C24.027 22.6513 24.4744 22.7791 24.9503 22.8857L26.9105 23.3544C27.8622 23.5675 28.7358 23.8516 29.5312 24.2067C30.3267 24.5618 31.0156 24.9986 31.598 25.517C32.1804 26.0355 32.6314 26.6463 32.951 27.3494C33.2777 28.0526 33.4446 28.8587 33.4517 29.7678C33.4446 31.103 33.1037 32.2607 32.429 33.2408C31.7614 34.2138 30.7955 34.9702 29.5312 35.5099C28.2741 36.0426 26.7578 36.3089 24.9822 36.3089C23.2209 36.3089 21.6868 36.0391 20.38 35.4993C19.0803 34.9595 18.0646 34.1605 17.3331 33.1023C16.6087 32.0369 16.2287 30.7195 16.1932 29.1499H20.657C20.7067 29.8814 20.9162 30.4922 21.2855 30.9822C21.6619 31.4652 22.1626 31.831 22.7876 32.0795C23.4197 32.321 24.1335 32.4418 24.929 32.4418C25.7102 32.4418 26.3885 32.3281 26.9638 32.1009C27.5462 31.8736 27.9972 31.5575 28.3168 31.1527C28.6364 30.7479 28.7962 30.2827 28.7962 29.7571C28.7962 29.267 28.6506 28.8551 28.3594 28.5213C28.0753 28.1875 27.6563 27.9034 27.1023 27.669C26.5554 27.4347 25.8842 27.2216 25.0888 27.0298L22.7131 26.4332C20.8736 25.9858 19.4212 25.2862 18.3558 24.3345C17.2905 23.3828 16.7614 22.1009 16.7685 20.4886C16.7614 19.1676 17.1129 18.0135 17.8232 17.0263C18.5405 16.0391 19.5241 15.2685 20.7741 14.7145C22.0241 14.1605 23.4446 13.8835 25.0355 13.8835C26.6548 13.8835 28.0682 14.1605 29.2756 14.7145C30.4901 15.2685 31.4347 16.0391 32.1094 17.0263C32.7841 18.0135 33.1321 19.157 33.1534 20.4567H28.7322Z" fill="#00008B"/>
<path d="M61.9231 21.5385H63.8462V23.4615H61.9231V21.5385ZM61.9231 23.4615H63.8462V25.3846H61.9231V23.4615ZM61.9231 25.3846H63.8462V27.3077H61.9231V25.3846ZM61.9231 27.3077H63.8462V29.2308H61.9231V27.3077ZM63.8462 29.2308H65.7692V31.1538H63.8462V29.2308ZM63.8462 31.1538H65.7692V33.0769H63.8462V31.1538ZM65.7692 31.1538H67.6923V33.0769H65.7692V31.1538ZM67.6923 33.0769H69.6154V35H67.6923V33.0769ZM69.6154 33.0769H71.5385V35H69.6154V33.0769ZM71.5385 33.0769H73.4615V35H71.5385V33.0769ZM73.4615 33.0769H75.3846V35H73.4615V33.0769ZM75.3846 31.1538H77.3077V33.0769H75.3846V31.1538ZM77.3077 29.2308H79.2308V31.1538H77.3077V29.2308ZM77.3077 27.3077H79.2308V29.2308H77.3077V27.3077ZM77.3077 25.3846H79.2308V27.3077H77.3077V25.3846ZM75.3846 23.4615H77.3077V25.3846H75.3846V23.4615ZM73.4615 23.4615H75.3846V25.3846H73.4615V23.4615ZM71.5385 25.3846H73.4615V27.3077H71.5385V25.3846ZM69.6154 27.3077H71.5385V29.2308H69.6154V27.3077ZM67.6923 27.3077H69.6154V29.2308H67.6923V27.3077ZM65.7692 25.3846H67.6923V27.3077H65.7692V25.3846ZM65.7692 23.4615H67.6923V25.3846H65.7692V23.4615ZM67.6923 23.4615H69.6154V25.3846H67.6923V23.4615ZM63.8462 19.6154H65.7692V21.5385H63.8462V19.6154ZM65.7692 17.6923H67.6923V19.6154H65.7692V17.6923ZM67.6923 17.6923H69.6154V19.6154H67.6923V17.6923ZM69.6154 17.6923H71.5385V19.6154H69.6154V17.6923ZM71.5385 17.6923H73.4615V19.6154H71.5385V17.6923ZM71.5385 19.6154H73.4615V21.5385H71.5385V19.6154ZM73.4615 19.6154H75.3846V21.5385H73.4615V19.6154ZM75.3846 19.6154H77.3077V21.5385H75.3846V19.6154ZM77.3077 17.6923H79.2308V19.6154H77.3077V17.6923ZM81.1614 33.0769H83.0844V35H81.1614V33.0769ZM83.0844 31.1538H85.0075V33.0769H83.0844V31.1538ZM83.0844 29.2308H85.0075V31.1538H83.0844V29.2308ZM83.0844 27.3077H85.0075V29.2308H83.0844V27.3077ZM83.0844 25.3846H85.0075V27.3077H83.0844V25.3846ZM83.0844 23.4615H85.0075V25.3846H83.0844V23.4615ZM83.0844 21.5385H85.0075V23.4615H83.0844V21.5385ZM83.0844 19.6154H85.0075V21.5385H83.0844V19.6154ZM85.0075 17.6923H86.9306V19.6154H85.0075V17.6923ZM85.0075 25.3846H86.9306V27.3077H85.0075V25.3846ZM86.9306 23.4615H88.8537V25.3846H86.9306V23.4615ZM90.7767 23.4615H92.6998V25.3846H90.7767V23.4615ZM88.8537 25.3846H90.7767V27.3077H88.8537V25.3846ZM88.8537 27.3077H90.7767V29.2308H88.8537V27.3077ZM88.8537 29.2308H90.7767V31.1538H88.8537V29.2308ZM88.8537 31.1538H90.7767V33.0769H88.8537V31.1538ZM88.8537 33.0769H90.7767V35H88.8537V33.0769ZM88.8537 35H90.7767V36.9231H88.8537V35ZM86.9306 36.9231H88.8537V38.8462H86.9306V36.9231ZM85.0075 38.8462H86.9306V40.7692H85.0075V38.8462ZM85.0075 33.0769H86.9306V35H85.0075V33.0769ZM94.6135 33.0769H96.5366V35H94.6135V33.0769ZM96.5366 31.1538H98.4597V33.0769H96.5366V31.1538ZM96.5366 29.2308H98.4597V31.1538H96.5366V29.2308ZM96.5366 27.3077H98.4597V29.2308H96.5366V27.3077ZM96.5366 25.3846H98.4597V27.3077H96.5366V25.3846ZM98.4597 23.4615H100.383V25.3846H98.4597V23.4615ZM100.383 23.4615H102.306V25.3846H100.383V23.4615ZM104.229 23.4615H106.152V25.3846H104.229V23.4615ZM102.306 25.3846H104.229V27.3077H102.306V25.3846ZM102.306 27.3077H104.229V29.2308H102.306V27.3077ZM102.306 29.2308H104.229V31.1538H102.306V29.2308ZM102.306 31.1538H104.229V33.0769H102.306V31.1538ZM98.4597 33.0769H100.383V35H98.4597V33.0769ZM100.383 31.1538H102.306V33.0769H100.383V31.1538ZM104.229 33.0769H106.152V35H104.229V33.0769ZM111.912 23.4615H113.835V25.3846H111.912V23.4615ZM113.835 23.4615H115.758V25.3846H113.835V23.4615ZM117.681 23.4615H119.604V25.3846H117.681V23.4615ZM115.758 25.3846H117.681V27.3077H115.758V25.3846ZM113.835 27.3077H115.758V29.2308H113.835V27.3077ZM111.912 29.2308H113.835V31.1538H111.912V29.2308ZM109.989 31.1538H111.912V33.0769H109.989V31.1538ZM108.066 33.0769H109.989V35H108.066V33.0769ZM109.989 25.3846H111.912V27.3077H109.989V25.3846ZM109.989 27.3077H111.912V29.2308H109.989V27.3077ZM115.758 29.2308H117.681V31.1538H115.758V29.2308ZM115.758 31.1538H117.681V33.0769H115.758V31.1538ZM113.835 33.0769H115.758V35H113.835V33.0769ZM111.912 33.0769H113.835V35H111.912V33.0769ZM121.518 33.0769H123.441V35H121.518V33.0769ZM123.441 31.1538H125.364V33.0769H123.441V31.1538ZM123.441 29.2308H125.364V31.1538H123.441V29.2308ZM123.441 27.3077H125.364V29.2308H123.441V27.3077ZM123.441 25.3846H125.364V27.3077H123.441V25.3846ZM123.441 23.4615H125.364V25.3846H123.441V23.4615ZM123.441 21.5385H125.364V23.4615H123.441V21.5385ZM123.441 19.6154H125.364V21.5385H123.441V19.6154ZM125.364 17.6923H127.287V19.6154H125.364V17.6923ZM125.364 25.3846H127.287V27.3077H125.364V25.3846ZM127.287 23.4615H129.21V25.3846H127.287V23.4615ZM131.133 23.4615H133.056V25.3846H131.133V23.4615ZM129.21 25.3846H131.133V27.3077H129.21V25.3846ZM129.21 27.3077H131.133V29.2308H129.21V27.3077ZM129.21 29.2308H131.133V31.1538H129.21V29.2308ZM129.21 31.1538H131.133V33.0769H129.21V31.1538ZM129.21 33.0769H131.133V35H129.21V33.0769ZM129.21 35H131.133V36.9231H129.21V35ZM127.287 36.9231H129.21V38.8462H127.287V36.9231ZM125.364 38.8462H127.287V40.7692H125.364V38.8462ZM125.364 33.0769H127.287V35H125.364V33.0769ZM136.893 33.0769H138.816V35H136.893V33.0769ZM140.739 33.0769H142.662V35H140.739V33.0769ZM138.816 31.1538H140.739V33.0769H138.816V31.1538ZM138.816 29.2308H140.739V31.1538H138.816V29.2308ZM138.816 27.3077H140.739V29.2308H138.816V27.3077ZM138.816 25.3846H140.739V27.3077H138.816V25.3846ZM136.893 23.4615H138.816V25.3846H136.893V23.4615ZM134.97 25.3846H136.893V27.3077H134.97V25.3846ZM138.816 17.6923H140.739V19.6154H138.816V17.6923ZM140.739 23.4615H142.662V25.3846H140.739V23.4615ZM144.589 33.0769H146.512V35H144.589V33.0769ZM148.435 33.0769H150.358V35H148.435V33.0769ZM146.512 31.1538H148.435V33.0769H146.512V31.1538ZM146.512 29.2308H148.435V31.1538H146.512V29.2308ZM146.512 27.3077H148.435V29.2308H146.512V27.3077ZM146.512 25.3846H148.435V27.3077H146.512V25.3846ZM146.512 23.4615H148.435V25.3846H146.512V23.4615ZM146.512 19.6154H148.435V21.5385H146.512V19.6154ZM146.512 21.5385H148.435V23.4615H146.512V21.5385ZM148.435 17.6923H150.358V19.6154H148.435V17.6923ZM148.435 29.2308H150.358V31.1538H148.435V29.2308ZM150.358 27.3077H152.281V29.2308H150.358V27.3077ZM152.281 25.3846H154.204V27.3077H152.281V25.3846ZM154.204 23.4615H156.128V25.3846H154.204V23.4615ZM152.281 29.2308H154.204V31.1538H152.281V29.2308ZM152.281 31.1538H154.204V33.0769H152.281V31.1538ZM154.204 33.0769H156.128V35H154.204V33.0769ZM158.041 33.0769H159.964V35H158.041V33.0769ZM159.964 31.1538H161.887V33.0769H159.964V31.1538ZM159.964 29.2308H161.887V31.1538H159.964V29.2308ZM159.964 27.3077H161.887V29.2308H159.964V27.3077ZM159.964 25.3846H161.887V27.3077H159.964V25.3846ZM161.887 23.4615H163.81V25.3846H161.887V23.4615ZM163.81 23.4615H165.734V25.3846H163.81V23.4615ZM167.657 23.4615H169.58V25.3846H167.657V23.4615ZM165.734 25.3846H167.657V27.3077H165.734V25.3846ZM165.734 27.3077H167.657V29.2308H165.734V27.3077ZM165.734 29.2308H167.657V31.1538H165.734V29.2308ZM165.734 31.1538H167.657V33.0769H165.734V31.1538ZM161.887 33.0769H163.81V35H161.887V33.0769ZM163.81 31.1538H165.734V33.0769H163.81V31.1538ZM167.657 33.0769H169.58V35H167.657V33.0769ZM173.416 33.0769H175.34V35H173.416V33.0769ZM177.263 33.0769H179.186V35H177.263V33.0769ZM175.34 31.1538H177.263V33.0769H175.34V31.1538ZM175.34 29.2308H177.263V31.1538H175.34V29.2308ZM175.34 27.3077H177.263V29.2308H175.34V27.3077ZM175.34 25.3846H177.263V27.3077H175.34V25.3846ZM173.416 23.4615H175.34V25.3846H173.416V23.4615ZM171.493 25.3846H173.416V27.3077H171.493V25.3846ZM177.263 25.3846H179.186V27.3077H177.263V25.3846ZM179.186 23.4615H181.109V25.3846H179.186V23.4615ZM181.109 25.3846H183.032V27.3077H181.109V25.3846ZM181.109 27.3077H183.032V29.2308H181.109V27.3077ZM181.109 29.2308H183.032V31.1538H181.109V29.2308ZM181.109 31.1538H183.032V33.0769H181.109V31.1538ZM183.032 33.0769H184.955V35H183.032V33.0769ZM183.032 23.4615H184.955V25.3846H183.032V23.4615ZM192.643 31.1538H194.567V33.0769H192.643V31.1538ZM190.72 33.0769H192.643V35H190.72V33.0769ZM188.797 31.1538H190.72V33.0769H188.797V31.1538ZM188.797 29.2308H190.72V31.1538H188.797V29.2308ZM188.797 27.3077H190.72V29.2308H188.797V27.3077ZM188.797 25.3846H190.72V27.3077H188.797V25.3846ZM186.874 23.4615H188.797V25.3846H186.874V23.4615ZM190.72 23.4615H192.643V25.3846H190.72V23.4615ZM188.797 21.5385H190.72V23.4615H188.797V21.5385ZM190.72 19.6154H192.643V21.5385H190.72V19.6154ZM188.797 23.4615H190.72V25.3846H188.797V23.4615ZM192.643 23.4615H194.567V25.3846H192.643V23.4615Z" fill="black"/>
</svg>
